<svg width="80" height="80" viewBox="0 0 80 80" fill="none" xmlns="http://www.w3.org/2000/svg">
<circle opacity="0.1" cx="40" cy="40" r="40" fill="white"/>
<path d="M40.0003 21.6667C34.4606 21.6667 30.0003 26.127 30.0003 31.6667V33.3334C28.167 33.3334 26.667 34.8334 26.667 36.6667V53.3334C26.667 55.1667 28.167 56.6667 30.0003 56.6667H50.0003C51.8337 56.6667 53.3337 55.1667 53.3337 53.3334V36.6667C53.3337 34.8334 51.8337 33.3334 50.0003 33.3334V31.6667C50.0003 26.127 45.54 21.6667 40.0003 21.6667ZM40.0003 25C43.794 25 46.667 27.873 46.667 31.6667V33.3334H33.3337V31.6667C33.3337 27.873 36.2067 25 40.0003 25ZM40.0003 41.6667C41.8337 41.6667 43.3337 43.1667 43.3337 45C43.3337 46.8334 41.8337 48.3334 40.0003 48.3334C38.167 48.3334 36.667 46.8334 36.667 45C36.667 43.1667 38.167 41.6667 40.0003 41.6667Z" fill="white"/>
</svg>
