<svg width="80" height="80" viewBox="0 0 80 80" fill="none" xmlns="http://www.w3.org/2000/svg">
<circle cx="40" cy="40" r="40" fill="#E9F0FF"/>
<path d="M26.6663 26.6667C25.5563 26.6667 24.5776 27.2118 23.9743 28.0502C23.5676 28.6135 23.7473 29.412 24.3356 29.7787L38.971 38.8998C39.601 39.2931 40.3983 39.2931 41.0283 38.8998L55.6019 29.7005C56.2136 29.3139 56.3661 28.4735 55.9144 27.9102C55.3061 27.1535 54.378 26.6667 53.333 26.6667H26.6663ZM55.8591 33.4766C55.7197 33.4781 55.5781 33.5165 55.4456 33.6003L41.0283 42.6921C40.3983 43.0837 39.601 43.0822 38.971 42.6888L24.5505 33.7044C24.0205 33.3744 23.333 33.7565 23.333 34.3815V50C23.333 51.8417 24.8247 53.3334 26.6663 53.3334H53.333C55.1747 53.3334 56.6663 51.8417 56.6663 50V34.2741C56.6663 33.8041 56.2772 33.472 55.8591 33.4766Z" fill="#1F6CFF"/>
</svg>
